<svg xmlns="http://www.w3.org/2000/svg" viewBox="0 0 135 40"><g fill="none" fill-rule="evenodd"><rect width="135" height="40" fill="#000" rx="5"/><path fill="#FFF" fill-rule="nonzero" d="M31.93 19.88a5.64 5.64 0 003.44 5.2 12.93 12.93 0 01-1.79 3.64c-1.05 1.58-2.16 3.12-3.92 3.15-1.7.04-2.28-1-4.23-1-1.98 0-2.59.97-4.23 1.04-1.67.06-2.95-1.68-4.04-3.25-2.19-3.2-3.89-9-1.6-12.95a6.27 6.27 0 015.27-3.22c1.68-.03 3.23 1.13 4.26 1.13 1.01 0 2.93-1.39 4.91-1.18a5.98 5.98 0 014.71 2.54 5.84 5.84 0 00-2.78 4.9zm-3.22-9.54a4.84 4.84 0 01-3.82 1.8 5.47 5.47 0 011.35-3.96 5.85 5.85 0 013.78-1.96 5.75 5.75 0 01-1.31 4.12zm21.53 16.3h-4.98l-1.2 3.54h-2.11l4.72-13.07h2.2l4.71 13.07h-2.14l-1.2-3.53zm-4.47-1.62h3.95l-1.94-5.74h-.06l-1.95 5.74zm18 .4c0 2.96-1.58 4.86-3.97 4.86a3.23 3.23 0 01-3-1.67h-.05v4.72H54.8V20.65h1.89v1.58h.04a3.38 3.38 0 013.03-1.68c2.42 0 4.01 1.91 4.01 4.87zm-2 0c0-1.93-1-3.2-2.53-3.2-1.49 0-2.5 1.3-2.5 3.2 0 1.92 1.01 3.2 2.5 3.2 1.53 0 2.52-1.26 2.52-3.2zm12.5 0c0 2.96-1.6 4.86-3.98 4.86a3.23 3.23 0 01-3-1.67h-.05v4.72H65.3V20.65h1.89v1.58h.04a3.38 3.38 0 013.03-1.68c2.42 0 4.01 1.91 4.01 4.87zm-2.02 0c0-1.93-1-3.2-2.52-3.2-1.5 0-2.5 1.3-2.5 3.2 0 1.92 1 3.2 2.5 3.2 1.53 0 2.52-1.26 2.52-3.2zm8.95 1.12c.14 1.3 1.4 2.15 3.12 2.15 1.65 0 2.84-.86 2.84-2.02 0-1.02-.72-1.63-2.41-2.04l-1.7-.41c-2.4-.58-3.51-1.7-3.51-3.53 0-2.25 1.96-3.8 4.75-3.8 2.77 0 4.66 1.55 4.72 3.8h-1.97c-.12-1.3-1.2-2.09-2.77-2.09-1.58 0-2.66.8-2.66 1.96 0 .92.69 1.47 2.38 1.88l1.44.36c2.68.63 3.8 1.7 3.8 3.62 0 2.45-1.96 3.98-5.05 3.98-2.9 0-4.86-1.5-4.99-3.86h2zm12.24-8.14v2.25h1.82v1.55h-1.82v5.25c0 .82.37 1.2 1.16 1.2.22 0 .43-.02.65-.04v1.53a5.37 5.37 0 01-1.09.1c-1.93 0-2.68-.73-2.68-2.58V22.2h-1.39v-1.55h1.39V18.4h1.96zm2.87 7.02c0-3 1.76-4.89 4.52-4.89s4.52 1.89 4.52 4.89-1.75 4.88-4.52 4.88c-2.78 0-4.52-1.88-4.52-4.88zm7.04 0c0-2.06-.94-3.28-2.52-3.28s-2.53 1.23-2.53 3.27c0 2.07.94 3.27 2.53 3.27 1.58 0 2.52-1.2 2.52-3.27zm3.6-4.77h1.88v1.62h.04a2.27 2.27 0 012.3-1.72c.22 0 .44.02.66.07v1.83a2.73 2.73 0 00-.88-.12 1.97 1.97 0 00-2.03 2.2v5.65h-1.96v-9.53zm13.9 6.73c-.26 1.73-1.95 2.92-4.1 2.92-2.77 0-4.5-1.86-4.5-4.84 0-2.99 1.74-4.93 4.42-4.93 2.63 0 4.3 1.81 4.3 4.7v.67h-6.74v.12a2.48 2.48 0 002.56 2.7 2.16 2.16 0 002.2-1.34h1.86zm-6.61-2.84H119a2.3 2.3 0 00-2.33-2.42 2.41 2.41 0 00-2.43 2.42zM45.53 7.27a2.78 2.78 0 012.95 3.12c0 2-1.08 3.16-2.95 3.16h-2.27V7.27h2.27zm-1.3 5.4h1.19a1.98 1.98 0 002.07-2.27 1.98 1.98 0 00-2.07-2.24h-1.19v4.5zm5.35-1.5a2.25 2.25 0 114.47 0 2.25 2.25 0 11-4.47 0zm3.51 0c0-1.02-.46-1.62-1.27-1.62s-1.27.6-1.27 1.63c0 1.03.46 1.63 1.27 1.63s1.27-.6 1.27-1.63zm6.9 2.38h-.96l-.98-3.5h-.08l-.97 3.5h-.96l-1.3-4.74h.94l.85 3.62h.07l.97-3.62h.9l.98 3.62h.07l.84-3.62h.94zm2.4-4.74h.9v.75h.08a1.42 1.42 0 011.41-.84 1.54 1.54 0 011.64 1.76v3.07h-.93v-2.83c0-.77-.33-1.14-1.02-1.14a1.09 1.09 0 00-1.14 1.2v2.77h-.93V8.81zm5.53-1.85h.93v6.59h-.93zm2.23 4.22a2.25 2.25 0 114.47 0 2.25 2.25 0 11-4.47 0zm3.51 0c0-1.03-.46-1.63-1.27-1.63-.82 0-1.27.6-1.27 1.63 0 1.03.45 1.63 1.27 1.63.8 0 1.27-.6 1.27-1.63zm1.95 1.03c0-.85.63-1.34 1.76-1.42l1.28-.07v-.4c0-.5-.33-.8-.97-.8-.52 0-.88.2-.98.54h-.91c.1-.82.86-1.34 1.94-1.34 1.19 0 1.86.59 1.86 1.6v3.23h-.9v-.67h-.08c-.3.5-.85.77-1.42.75a1.43 1.43 0 01-1.58-1.42zm3.04-.4v-.4l-1.15.07c-.66.05-.95.27-.95.69 0 .42.37.67.88.67a1.12 1.12 0 001.22-1.03zm2.16-.63c0-1.5.77-2.45 1.97-2.45a1.56 1.56 0 011.46.83h.07v-2.6h.93v6.59h-.9v-.75h-.07c-.3.53-.88.85-1.49.83-1.2 0-1.97-.95-1.97-2.45zm.97 0c0 1 .47 1.6 1.27 1.6.79 0 1.27-.6 1.27-1.6 0-.99-.49-1.6-1.27-1.6-.79 0-1.27.6-1.27 1.6zm7.33 0a2.25 2.25 0 114.47 0 2.25 2.25 0 11-4.47 0zm3.5 0c0-1.03-.45-1.63-1.26-1.63s-1.27.6-1.27 1.63c0 1.03.46 1.63 1.27 1.63.8 0 1.27-.6 1.27-1.63zm2.23-2.37h.9v.75h.07a1.42 1.42 0 011.41-.84 1.54 1.54 0 011.64 1.76v3.07h-.93v-2.83c0-.77-.33-1.14-1.03-1.14a1.09 1.09 0 00-1.13 1.2v2.77h-.93V8.81zm9.3-1.18v1.2h1.04v.79h-1.03v2.44c0 .5.2.71.67.71.12 0 .24 0 .36-.02v.78a3 3 0 01-.51.05c-1.04 0-1.46-.37-1.46-1.28V9.62h-.75v-.79h.75v-1.2h.94zm2.31-.67h.93v2.61h.07c.26-.56.84-.9 1.45-.85a1.56 1.56 0 011.63 1.77v3.06h-.93v-2.83c0-.76-.36-1.14-1.02-1.14a1.1 1.1 0 00-1.2 1.2v2.77h-.93V6.96zm9.54 5.31a1.92 1.92 0 01-2.06 1.37 2.15 2.15 0 01-2.19-2.45 2.19 2.19 0 012.19-2.47c1.32 0 2.11.9 2.11 2.39v.33h-3.34v.05a1.25 1.25 0 001.26 1.36c.46.05.9-.18 1.13-.58h.9zm-3.3-1.53h2.4a1.14 1.14 0 00-1.17-1.22 1.21 1.21 0 00-1.22 1.22z"/></g></svg>
